<svg xmlns="http://www.w3.org/2000/svg" viewBox="0 0 24 24" width="24px" height="24px"><path d="M 3.75 2 A 0.750075 0.750075 0 0 0 3 2.75 L 3 18.794922 C 3 20.005016 3.9970623 21 5.2070312 21 L 19.4375 21 L 19.791016 21 L 20.146484 21 C 21.160246 21 22 20.162686 22 19.148438 L 22 7.75 A 0.750075 0.750075 0 1 0 20.5 7.75 L 20.5 19.148438 C 20.5 19.350188 20.350722 19.5 20.146484 19.5 L 19.791016 19.5 L 19.4375 19.5 C 19.233262 19.5 19.083984 19.350186 19.083984 19.148438 L 19.083984 2.75 A 0.750075 0.750075 0 0 0 18.333984 2 L 3.75 2 z M 4.5 3.5 L 17.583984 3.5 L 17.583984 19.148438 C 17.583984 19.284793 17.701747 19.371663 17.730469 19.5 L 5.2070312 19.5 C 4.8070002 19.5 4.5 19.192827 4.5 18.794922 L 4.5 3.5 z M 6.75 7 A 0.750075 0.750075 0 1 0 6.75 8.5 L 15.25 8.5 A 0.750075 0.750075 0 1 0 15.25 7 L 6.75 7 z M 6.75 11 A 0.750075 0.750075 0 1 0 6.75 12.5 L 9.25 12.5 A 0.750075 0.750075 0 1 0 9.25 11 L 6.75 11 z M 12.75 11 A 0.750075 0.750075 0 1 0 12.75 12.5 L 15.25 12.5 A 0.750075 0.750075 0 1 0 15.25 11 L 12.75 11 z M 6.75 15 A 0.750075 0.750075 0 1 0 6.75 16.5 L 9.25 16.5 A 0.750075 0.750075 0 1 0 9.25 15 L 6.75 15 z M 12.75 15 A 0.750075 0.750075 0 1 0 12.75 16.5 L 15.25 16.5 A 0.750075 0.750075 0 1 0 15.25 15 L 12.75 15 z" fill="#ffffff"/></svg>