<svg version="1.1" xmlns="http://www.w3.org/2000/svg" xmlns:xlink="http://www.w3.org/1999/xlink" width="24" height="24" viewBox="0,0,256,256"><g fill="none" fill-rule="nonzero" stroke="#ffffff" stroke-width="2" stroke-linecap="round" stroke-linejoin="round" stroke-miterlimit="10" stroke-dasharray="" stroke-dashoffset="0" font-family="none" font-weight="none" font-size="none" text-anchor="none" style="mix-blend-mode: normal"><g transform="scale(10.66667,10.66667)"><path d="M21,10c0,7 -9,13 -9,13c0,0 -9,-6 -9,-13c0,-2.38695 0.94821,-4.67613 2.63604,-6.36396c1.68783,-1.68783 3.97701,-2.63604 6.36396,-2.63604c2.3869,0 4.6761,0.94821 6.364,2.63604c1.6878,1.68783 2.636,3.97701 2.636,6.36396z"></path><path d="M12,13c1.6569,0 3,-1.3431 3,-3c0,-1.65685 -1.3431,-3 -3,-3c-1.6569,0 -3,1.34315 -3,3c0,1.6569 1.3431,3 3,3z"></path></g></g></svg>